<?xml version="1.0" encoding="UTF-8" standalone="no"?>
<svg
   xmlns:dc="http://purl.org/dc/elements/1.1/"
   xmlns:cc="http://creativecommons.org/ns#"
   xmlns:rdf="http://www.w3.org/1999/02/22-rdf-syntax-ns#"
   xmlns:svg="http://www.w3.org/2000/svg"
   xmlns="http://www.w3.org/2000/svg"
   viewBox="0 0 551.37335 551.08002"
   height="551.08002"
   width="551.37335"
   xml:space="preserve"
   id="svg2"
   version="1.1"><metadata
     id="metadata8"><rdf:RDF><cc:Work
         rdf:about=""><dc:format>image/svg+xml</dc:format><dc:type
           rdf:resource="http://purl.org/dc/dcmitype/StillImage" /></cc:Work></rdf:RDF></metadata><defs
     id="defs6" /><g
     transform="matrix(1.3333333,0,0,-1.3333333,0,551.08)"
     id="g10"><g
       transform="scale(0.1)"
       id="g12"><path
         id="path14"
         style="fill:#22a53c;fill-opacity:1;fill-rule:nonzero;stroke:none"
         d="m 2066.82,4132.7 c 29.09,0.6 58.09,0.99 87.19,-1.74 17.32,-1.62 34.89,-1.34 52.38,-2.48 40.28,-2.62 80.37,-6.52 120.43,-11.61 32.8,-4.17 65.37,-9.46 98,-14.54 37.85,-5.89 75.16,-14.2 112.52,-22.37 36.47,-7.98 72.39,-18.14 108.21,-28.56 36.03,-10.47 71.63,-22.27 107.13,-34.49 60.93,-20.98 120.38,-45.62 178.99,-72.15 43.45,-19.66 85.93,-41.51 127.74,-64.57 72.32,-39.89 142.19,-83.53 209.24,-131.87 36.25,-26.14 72.15,-52.72 106.6,-81.1 26.83,-22.11 53.46,-44.54 78.91,-68.37 31.68,-29.67 64.34,-58.31 94.06,-89.99 42.56,-45.38 84.52,-91.23 123.73,-139.66 42.81,-52.89 83,-107.57 120.66,-164.19 36.75,-55.27 70.3,-112.39 101.59,-170.94 42.41,-79.37 79.15,-161.26 110.4,-245.59 17.56,-47.38 33.01,-95.45 47.41,-143.95 15.06,-50.7 27.8,-101.89 38.72,-153.51 8.43,-39.93 15.21,-80.24 21.08,-120.72 5.14,-35.52 9.87,-71.07 13.28,-106.74 2.6,-27.2 4.36,-54.55 6.07,-81.86 1.19,-19.16 -0.35,-38.63 4.11,-57.58 0,-39.2 0,-78.4 0,-117.6 -3.88,-3.13 -1.74,-7.42 -1.93,-11.14 -2.22,-44.34 -5.49,-88.57 -9.43,-132.81 -4.06,-45.62 -10.25,-90.89 -17.53,-135.98 -6.61,-41.03 -15.08,-81.81 -23.96,-122.42 -11.2,-51.21 -24.98,-101.81 -40.75,-151.81 -27.94,-88.53 -61.2,-174.98 -100.43,-259.19 C 3894.15,1092.1 3839.2,995.539 3776.49,903.48 3743.79,855.469 3709.2,808.801 3672.04,764 c -33.39,-40.27 -67.46,-79.781 -103.36,-117.84 -20.8,-22.058 -41.42,-44.289 -63.57,-64.93 -35.05,-32.648 -70.31,-65.019 -106.97,-95.96 -67.88,-57.29 -139.08,-109.899 -213.68,-157.961 -43.19,-27.821 -87.53,-53.688 -132.71,-78.25 -67.6,-36.739 -136.9,-69.86 -208.05,-98.918 -64.53,-26.36 -130.41,-49.18 -197.42,-68.5707 C 2571.66,59.9688 2496.2,42.0117 2419.59,29.0313 2370.5,20.7188 2321.24,13.7305 2271.61,9.21094 2237.65,6.12109 2203.69,3.69922 2169.65,1.69141 c -34.31,-2.019535 -68.54,-1.902348 -102.83,-1.339847 -0.13,10.957037 -0.26,21.937537 -0.4,32.910137 0.15,4.3867 0.41,8.7774 0.41,13.168 0.03,69.1913 0.19,138.3793 -0.18,207.5703 -0.05,8.969 2.31,11.59 11.36,11.43 36.08,-0.59 72.1,0.769 108.15,3.218 34.58,2.34 68.99,5.692 103.4,9.711 41.58,4.871 82.83,11.461 123.95,19.282 64.77,12.328 128.66,28.089 191.6,47.679 62.25,19.371 123.38,41.692 183.48,67.141 69.47,29.41 136.96,62.68 201.98,100.668 72.84,42.551 142.95,89.269 209.63,141.223 45.9,35.769 90.77,72.707 132.85,112.718 59.69,56.762 117.01,115.84 169.17,179.879 33.85,41.563 66.79,83.781 97.24,127.791 63.15,91.28 118.56,187.08 164.94,288.06 25.43,55.37 48.76,111.55 68.76,169.09 14.27,41.07 27.89,82.32 39.32,124.31 13.27,48.71 25.53,97.64 35.05,147.23 6.58,34.34 12.21,68.82 17.29,103.43 4.65,31.68 8.43,63.42 11.35,95.25 2.42,26.43 3.54,53.05 5.34,79.53 2.49,36.65 3.67,73.32 3.31,109.92 -0.63,63.15 -3.79,126.21 -10.7,189.12 -3.96,36.11 -7.84,72.24 -13.24,108.12 -10.86,72.11 -26.81,143.25 -46.09,213.56 -15.92,58.09 -34.43,115.38 -56.02,171.65 -33.95,88.45 -73.66,174.13 -119.84,256.97 -76.46,137.16 -168.6,262.7 -275.67,377.37 -31.07,33.28 -63.59,65.12 -97.08,96.06 -35.66,32.96 -72.41,64.59 -110.44,94.7 -57.53,45.54 -117.64,87.45 -180.11,126.05 -70.99,43.87 -144.67,82.54 -220.87,116.36 -75.11,33.33 -152.13,61.45 -231.19,84.33 -49.88,14.43 -100.13,26.85 -150.89,37.37 -25.1,5.2 -50.66,8.2 -75.81,13.19 -26.07,5.17 -52.4,8.28 -78.75,11.07 -29.49,3.13 -59.04,5.71 -88.7,7.56 -40.53,2.52 -81.02,4.67 -121.63,4.47 -2.38,11 -0.65,22.13 -0.97,33.19" /><path
         id="path16"
         style="fill:#0068b2;fill-opacity:1;fill-rule:nonzero;stroke:none"
         d="m 2066.82,4132.7 c 0.32,-11.06 -1.41,-22.19 0.97,-33.19 0,-73.19 -0.21,-146.38 0.22,-219.56 0.06,-10.07 -2.76,-12.75 -12.68,-12.59 -24.63,0.37 -49.25,-1.64 -73.85,-2.61 -35.74,-1.43 -71.25,-4.42 -106.86,-7.37 -38.52,-3.19 -76.62,-9.2 -114.66,-15.31 -42.12,-6.78 -83.93,-15.5 -125.44,-25.7 -52.76,-12.95 -105.06,-27.48 -156.43,-44.96 -61.04,-20.77 -121.04,-44.26 -179.62,-71.45 -61.61,-28.58 -122.05,-59.33 -180.2,-94.32 -65.07,-39.15 -127.598,-82.06 -187.598,-128.8 -51.313,-39.98 -100.457,-82.34 -147.488,-127.13 -47.106,-44.85 -91.243,-92.59 -133.399,-142.19 -41.699,-49.06 -80.836,-100.02 -117.472,-152.95 -67.586,-97.66 -125.641,-200.68 -174.012,-309.12 -42.684,-95.66 -77.629,-194.07 -104.039,-295.49 -22.836,-87.69 -39.883,-176.39 -50.766,-266.4 -6.262,-51.78 -11.984,-103.72 -13.117,-155.66 -1.543,-70.95 -2.051,-142.05 3.828,-213 2.832,-34.15 6.082,-68.22 9.652,-102.29 4.176,-39.84 10.164,-79.42 17.52,-118.67 10.012,-53.42 22.156,-106.45 36.863,-158.88 18.227,-64.98 39.031,-129.02 63.363,-192.02 32.075,-83.05 69.907,-163.28 113.208,-240.98 34.558,-62.04 72.718,-121.74 113.878,-179.662 45.149,-63.558 94.122,-123.976 146.661,-181.386 30.332,-33.141 61.289,-65.813 94.699,-96.18 34.332,-31.211 68.722,-62.242 104.441,-91.883 35.164,-29.187 71.36,-57 108.778,-83.09 94.3,-65.769 193.28,-123.429 298.19,-170.859 54.79,-24.781 110.42,-47.211 167.19,-66.922 59.62,-20.687 120.24,-38.1561 181.72,-52.3163 36.15,-8.3203 72.6,-15.6133 109.17,-21.7929 37.55,-6.3282 75.37,-10.9297 113.27,-15.1172 38.49,-4.2618 77.04,-7.043 115.65,-8.9219 25.93,-1.2578 51.97,-0.5195 77.96,-0.668 0.14,-10.9726 0.27,-21.9531 0.4,-32.910137 -34.67,-0.519532 -69.3,-0.562501 -104,1.320317 -29.37,1.60937 -58.71,3.55859 -88,5.84765 -29.15,2.28906 -58.3,5.37887 -87.21,9.72267 -36.6,5.5078 -73.13,11.4766 -109.54,18.3476 -49.11,9.2813 -97.66,20.7305 -145.96,33.461 -103.48,27.25 -203.99,62.9182 -301.78,106.3712 -114.19,50.746 -223.1,110.91 -326.256,181.488 C 850.605,393.488 798.996,432.5 748.977,473.719 680.844,529.84 617.148,590.672 556.621,654.762 514.344,699.52 474.777,746.719 436.727,795.219 383.781,862.691 335.332,933.25 291.379,1006.76 c -47.977,80.27 -90.246,163.53 -126.828,249.72 -33.828,79.72 -62.926,161.07 -86.6174,244.25 -19.1992,67.41 -34.8398,135.77 -46.8125,204.95 -7.2617,41.99 -13.5742,84.12 -18.5156,126.37 -3.71878,31.83 -5.81644,63.96 -8.13284,96 -4.351566,60.15 -5.230473,120.29 -3.902347,180.49 0.859377,39.03 1.207027,78.18 4.585937,117.04 38.27345,440.46 196.39075,831.98 480.18775,1171.91 52.844,63.29 109.648,122.94 169.742,179.27 67.727,63.49 139.699,121.94 215.371,175.85 64.203,45.75 130.723,87.79 199.723,125.69 141.81,77.88 290.62,138.93 446.72,181.88 73.2,20.14 147.38,36.15 222.31,48.01 42.71,6.76 85.7,12.24 128.94,15.54 35.19,2.68 70.33,5.41 105.6,7.28 31.06,1.65 62.02,2.4 93.07,1.69" /><path
         id="path18"
         style="fill:#22a53c;fill-opacity:1;fill-rule:nonzero;stroke:none"
         d="m 1062.34,1425.72 c 6.31,0 10.19,0 14.07,0 96,0 192,0.11 288,-0.19 8.7,-0.03 12.05,2.09 13.97,11.16 45.99,217.12 92.38,434.15 138.72,651.2 3.67,17.17 7.99,34.22 11.04,51.5 1.26,7.15 3.99,8.89 10.87,8.88 93.2,-0.22 186.39,-0.35 279.59,0.12 10.58,0.05 9.08,-4.36 7.63,-11.1 -13.84,-64.39 -27.59,-128.8 -41.32,-193.21 -22.64,-106.18 -45.61,-212.29 -67.64,-318.6 -7.5,-36.2 -9.68,-73.01 -0.57,-109.44 13.19,-52.68 50.04,-81.67 99.54,-97.29 43.9,-13.85 89.33,-16.6 134.94,-18.16 86.31,-2.96 167.92,17.08 246.99,49.87 5.05,2.09 8.72,4 8.76,10.84 0.26,55.17 0.95,110.35 1.49,165.52 0.01,1.51 -0.38,3.03 -0.7,5.44 -24.34,-9.65 -49,-15.76 -74.7,-16.79 -15.22,-0.61 -30.4,-0.02 -45.24,3.79 -23.87,6.13 -35.69,20.11 -38.24,44.68 -3.74,35.96 3.65,70.88 10.91,105.63 25.64,122.69 51.94,245.24 77.59,367.92 1.74,8.34 4.45,10.86 13.01,10.83 112.4,-0.3 224.8,-0.35 337.2,0.04 10.28,0.04 11.56,-3.02 9.74,-12.02 -44.87,-221.85 -88.92,-443.87 -134.51,-665.57 -24.31,-118.23 -74.13,-224.73 -154.33,-315.97 -4.41,-5.01 -4.39,-7.6 0.77,-12.08 58.48,-50.93 116.76,-102.09 175.04,-153.232 4.08,-3.59 6.74,-6.316 12.42,-0.777 111.48,108.779 197.47,234.019 248.78,382.029 22.86,65.93 34.85,134.38 48.81,202.38 32.85,159.93 65.37,319.92 98,479.88 5.82,28.55 11.84,57.07 17.13,85.72 1.37,7.43 4.1,9.64 11.62,9.58 43.2,-0.37 86.4,0.02 129.59,-0.37 7.54,-0.07 11.07,2.06 13.97,9.19 24.91,61.36 50.15,122.58 75.69,183.68 3.8,9.09 3.48,12.02 -7.62,11.92 -57.19,-0.47 -114.39,-0.04 -171.59,-0.4 -8.85,-0.05 -12.19,1.42 -10.05,11.18 8.15,37.03 15.35,74.27 23.47,111.3 8.3,37.84 43.13,65.81 81.94,66.96 27.29,0.81 53.39,-4.18 77.58,-16.78 8.35,-4.37 11.45,-1.69 15.57,5.21 22.07,37.06 44.79,73.73 66.73,110.86 5.05,8.55 7.35,10.66 15.31,2.04 174.73,-189.54 349.73,-378.82 524.96,-567.89 6.84,-7.38 5.9,-11.1 -0.39,-17.89 -151.86,-163.85 -303.51,-327.9 -455.16,-491.96 C 2987.14,1333.21 2772.58,1101.04 2558.03,868.859 2398,695.699 2237.99,522.5 2077.98,349.32 c -10.57,-11.429 -10.6,-11.468 -21.25,0.059 -202.33,218.98 -404.65,437.973 -606.98,656.951 -127.2,137.68 -254.42,275.33 -381.63,413 -1.34,1.46 -2.66,2.94 -5.78,6.39" /><path
         id="path20"
         style="fill:#0068b2;fill-opacity:1;fill-rule:nonzero;stroke:none"
         d="m 1468.71,2828.5 c -2.42,-2.18 -4.52,-3.89 -6.42,-5.8 -10.68,-10.8 -21.26,-21.69 -31.97,-32.47 -58.04,-58.43 -116.1,-116.85 -174.2,-175.23 -4.01,-4.03 -7.99,-6.69 -2.18,-13.39 64.45,-74.24 128.6,-148.73 192.55,-223.39 5.38,-6.28 8.15,-5.57 13.48,-0.14 44.8,45.64 89.9,91.01 134.92,136.45 22.51,22.72 44.78,45.69 67.71,67.97 7.63,7.41 9.99,12.62 0.97,20.8 -7.93,7.19 -14.2,16.21 -21.24,24.38 -55.53,64.5 -111.07,129 -166.63,193.48 -2.04,2.36 -4.3,4.53 -6.99,7.34 z m 1555.18,-68.48 c -23.74,2.56 -44.36,3.17 -65,3.75 -63.18,1.76 -125.34,-4.24 -185.05,-26.15 -104.37,-38.28 -168.72,-114.44 -202.98,-218.03 -16.6,-50.2 -25.89,-102.11 -31.61,-154.58 -1.14,-10.41 -4.3,-12.79 -14.4,-12.75 -108.78,0.39 -217.57,0.42 -326.36,-0.01 -11.3,-0.05 -12.91,2.46 -10.67,13.29 18.2,87.91 36.78,175.72 63.72,263.39 -21.69,-3.05 -42.14,-5.82 -62.56,-8.79 -80.61,-11.75 -161.18,-23.83 -241.87,-35.03 -11.74,-1.63 -16.67,-6.56 -20.08,-17.36 -20.6,-65.17 -35.24,-131.8 -50.26,-198.37 -4.53,-20.03 0.25,-16.81 -21.17,-16.82 -193.57,-0.1 -387.14,-0.17 -580.71,0.24 -10.9,0.02 -14.83,-2.85 -17.07,-13.46 -49.42,-233.91 -99.25,-467.72 -148.72,-701.62 -1.67,-7.89 -4.53,-10.21 -12.44,-10.19 -70.38,0.17 -140.773,0.01 -211.152,-0.36 -6.985,-0.03 -11.59,1.99 -16.399,7.21 -130.593,141.57 -261.312,283.04 -392.402,424.15 -7.266,7.82 -4.062,11.16 1.231,16.87 188.886,204.17 377.671,408.42 566.462,612.67 166,179.59 332,359.18 497.98,538.79 171.68,185.78 343.33,371.58 515,557.36 3.23,3.49 6.56,6.88 10.13,10.62 318.45,-344.56 636.43,-688.63 956.38,-1034.82" /></g></g></svg>